<?xml version="1.0" standalone="no"?>
<svg viewBox="0 0 200 200" xmlns="http://www.w3.org/2000/svg">
  <path fill="#9EF0F0" d="M37.6,-52.6C49.6,-50.7,60.9,-41.8,61.7,-30.9C62.6,-19.9,52.9,-6.8,51.7,8C50.5,22.9,57.6,39.5,54.8,53.5C52,67.4,39.2,78.8,25.3,79.9C11.5,81.1,-3.5,72.1,-16,64C-28.5,56,-38.5,49.1,-38,38.9C-37.5,28.8,-26.4,15.5,-29.4,3.4C-32.5,-8.7,-49.8,-19.7,-54.2,-30.9C-58.6,-42.1,-50.2,-53.6,-39.1,-55.9C-27.9,-58.2,-13.9,-51.3,-0.6,-50.3C12.8,-49.4,25.5,-54.5,37.6,-52.6Z" transform="translate(100 100)" />
</svg>
